<?xml version="1.0" encoding="iso-8859-1"?>
<!-- Generator: Adobe Illustrator 18.0.0, SVG Export Plug-In . SVG Version: 6.00 Build 0)  -->
<!DOCTYPE svg PUBLIC "-//W3C//DTD SVG 1.1//EN" "http://www.w3.org/Graphics/SVG/1.1/DTD/svg11.dtd">
<svg version="1.1" id="Capa_1" xmlns="http://www.w3.org/2000/svg" xmlns:xlink="http://www.w3.org/1999/xlink" x="0px" y="0px"
	 viewBox="0 0 433.489 433.489" style="enable-background:new 0 0 433.489 433.489;" xml:space="preserve">
<g>
	<path style="fill:#666666;" d="M195.964,89.493h51.592V73.858c0-18.026-14.613-32.638-32.638-32.638h-55.96v11.266
		C158.957,72.925,175.525,89.493,195.964,89.493z"/>
	<path style="fill:#F9D43A;" d="M433.489,313.342c0,2.837-1.15,5.411-3.017,7.278c-1.856,1.857-4.43,3.006-7.267,3.006H88.598
		V248.94c0-48.128,18.711-91.868,49.267-124.364c6.518-6.93,13.575-13.353,21.095-19.197c6.033-4.683,12.372-8.997,18.985-12.899
		c6.761-3.998,13.807-7.562,21.095-10.674c6.16-2.626,12.499-4.926,18.985-6.866c6.877-2.057,13.912-3.713,21.095-4.957
		c7.056-1.213,14.26-2.025,21.57-2.405c3.154-0.159,6.318-0.243,9.514-0.243c3.913,0,7.774,0.211,11.581,0.643
		c7.468,0.812,14.714,2.426,21.622,4.736c7.436,2.479,14.513,5.78,21.095,9.788c7.204,4.367,13.838,9.587,19.766,15.515
		c18.954,18.954,30.682,45.143,30.682,74.064v82.734c0,26.643,21.601,48.244,48.254,48.244c2.837,0,5.411,1.15,7.267,3.016
		C432.339,307.932,433.489,310.505,433.489,313.342z"/>
	<path style="fill:#666666;" d="M433.489,313.342c0,2.837-1.15,5.411-3.017,7.278c-1.856,1.857-4.43,3.006-7.267,3.006H298.186
		v-59.213c0-42.396,34.368-76.764,76.764-76.764h0v67.166c0,26.643,21.601,48.244,48.254,48.244c2.837,0,5.411,1.15,7.267,3.016
		C432.339,307.932,433.489,310.505,433.489,313.342z"/>
	<g>
		<circle style="fill:#FFFFFF;" cx="342.677" cy="289.772" r="19.751"/>
		<circle style="fill:#4D4D4D;" cx="342.677" cy="289.772" r="12.084"/>
	</g>
	<path style="fill:#666666;" d="M37.007,323.626h51.592v-15.635c0-18.026-14.613-32.638-32.638-32.638H0l0,11.266
		C0,307.058,16.568,323.626,37.007,323.626z"/>
	<path style="fill:#666666;" d="M238.281,371.899H186.69v-15.635c0-18.026,14.613-32.638,32.638-32.638h55.96v11.266
		C275.288,355.331,258.72,371.899,238.281,371.899z"/>
	<path style="fill:#666666;" d="M88.598,355.262v-31.636H72.964c-18.026,0-32.638,14.613-32.638,32.638v36.004h11.266
		C72.03,392.269,88.598,375.701,88.598,355.262z"/>
</g>
<g>
</g>
<g>
</g>
<g>
</g>
<g>
</g>
<g>
</g>
<g>
</g>
<g>
</g>
<g>
</g>
<g>
</g>
<g>
</g>
<g>
</g>
<g>
</g>
<g>
</g>
<g>
</g>
<g>
</g>
</svg>
